<?xml version="1.0" encoding="UTF-8"?>
<svg version="1.1" viewBox="0 0 1032 1104" width="1280" height="1280" xmlns="http://www.w3.org/2000/svg">
<path transform="translate(0)" d="m0 0h1032v1104h-1032z" fill="#FDE4E1"/>
<path transform="translate(367,52)" d="m0 0 10 1 49 17 42 15 208 74 27 10 20 7 36 13 20 7 48 17 12 6 3 5-1 9-12 35-16 45-22 62-19 53-17 48-15 42-12 34-10 27-7 20-20 57-12 33-4 7-5 3-10-1-40-14-101-36-53-19-54-19-24-9-26-9-70-25-54-19-30-11-9-5-4-5 1-10 13-37 17-47 13-37 19-53 17-48 10-28 7-20 11-31 18-50 8-23 13-36 7-20 11-29z" fill="#FEE5E2"/>
<path transform="translate(367,52)" d="m0 0 10 1 49 17 42 15 208 74 27 10 20 7 36 13 20 7 48 17 12 6 3 5-1 9-12 35-16 45-22 62-19 53-17 48-15 42-12 34-10 27-7 20-20 57-12 33-4 7-5 3-10-1-40-14-101-36-53-19-54-19-24-9-26-9-70-25-54-19-30-11-9-5-4-5 1-10 13-37 17-47 13-37 19-53 17-48 10-28 7-20 11-31 18-50 8-23 13-36 7-20 11-29zm0 110-6 4-4 7-14 40-35 98-22 62-19 53-13 37-11 30-2 10 3 6 8 5 29 10 27 10 29 10 31 11 42 15 44 16 29 10 129 46 29 10h8l5-4 6-14 17-48 10-28 7-20 15-42 16-45 19-53 16-45 11-30 2-8v-6l-6-7-18-7-62-22-47-17-26-9-31-11-44-16-29-10-48-17-36-13-17-6-27-10-7-2z" fill="#3E626F"/>
<path transform="translate(244,780)" d="m0 0h12l16 3 12 5 8 7 6 7 7 15 3 11 1 9v13l-2 19-5 19-7 14-12 13-10 7-17 8-16 4h-6l-1-2v-5l-1-1h-9l-1-2 1-7h-11v-107l4-1-2-6-3-2 1-12 2-4 21-4z" fill="#8CD620"/>
<path transform="translate(724,780)" d="m0 0 5 2 7 9h4l4-9h4l5 22 19 87 7 29v8l-5-1-5-7-4-1-2 5-1 1-10-1-3-4-3-14-1-1h-43l-3 13-3 10-1 1-7-1-5-6-3 1-3 7-5 1 1-10 11-49 17-85 2-4h5l4 4h5l5-6z" fill="#8DD720"/>
<path transform="translate(574,299)" d="m0 0h11l6 3 5 6 2 6v7l-6 10-12 14-7 9-11 13-11 14-14 17-13 16-9 11-14 17-13 16-9 11-13 16-9 11-7 8-6 4-9 1-9-3-6-8-1-3v-7l4-9 11-13 7-9 10-12 8-10 13-16 9-11 13-16 14-17 9-11 26-32 11-14 12-14z" fill="#3F646F"/>
<path transform="translate(532,781)" d="m0 0h24l13 4 9 5 6 7 5 10 3 11v17l-2 9-6 12-11 12-14 9-15 7-11 3-1 3-1 40-4 1-5-5-4-9-3-1-2 5-3 6-5-1-1-57v-47l3-17 5-6v-3h-11l-1-1v-6l2-2 16-4z" fill="#8DD720"/>
<path transform="translate(431,291)" d="m0 0 10 1 7 6 3 7v9l-5 8-14 8-37 18-10 5-3 4v8l16 32 10 22 1 11-5 10-5 4-7 3-8-1-8-6-6-10-12-26-8-16-13-28-2-5v-13l3-6 9-7 27-13 28-13 21-10z" fill="#40656E"/>
<path transform="translate(622,361)" d="m0 0h9l6 4 7 9 13 28 19 39 5 12 1 9-3 8-4 5-8 5-33 15-34 16-9 4-10 1-8-4-5-6-2-4v-8l3-8 9-7 27-13 20-9 8-5 2-2v-8l-13-28-11-22-3-8v-11l5-8 5-3z" fill="#40646E"/>
<path transform="translate(396,784)" d="m0 0 6 3 6 8 4 1 1-8 10-1 3 2 9 48 8 39 2 11 2 1 2-14 5-22 9-39 5-28 1-1h5l2 2v11l5-3 4-8h9l-1 7-14 61-8 35-7 32-2 6-9 2h-6l-3-4-1-3h-4l-5 8-4-1-2-8-5-22-8-33-10-42-8-30-1-3z" fill="#8DD720"/>
<path transform="translate(373,781)" d="m0 0h7l1 1v8l-3 3 2 4 4 4v4l-33 4-2 34 33-2 3 1v5l-5 5 2 4 1 5-1 1-23 3h-9v18l1 22h14l19-1 1 4-7 2v4l7 2-1 7-2 4-5 2-26 3h-8l-2-1-2-4-9-3-1-7-8-2v-103l-5-2v-4l9-3 1-7-8-1-1-6 2-5 38-2z" fill="#8DD720"/>
<path transform="translate(845,777)" d="m0 0h4l1 4v7l8-6 3-1h7l-1 6-4 9-10 23-13 30-5 13-1 4v60l-2 2-8 1-5-7-4-1-3 9-5 1-1-4v-21l-2-37-5-15-15-35-11-25v-6l1-1h9l3 3 4 1-1-10 1-2h5l4 9 7 15 8 18 6 13 2-2 5-13 12-29 4-11z" fill="#8DD720"/>
<path transform="translate(617,783)" d="m0 0 3 1 2 6h5l2-6h3v48l-1 47-1 26 16-1h19v7l-1 1-11 2 1 3 10 2-3 12-7 2-22 1h-15l-2-9-4-2-2-6-7-2v-38l1-88 10-4z" fill="#8CD620"/>
<path transform="translate(245,812)" d="m0 0h11l9 3 8 6 6 11 2 10v13l-3 14-4 9-5 8-5 6-11 7-10 4h-4l-1-4-1-26v-30l1-25 2-5z" fill="#FEE5E2"/>
<path transform="translate(544,810)" d="m0 0h8l7 3 6 7 1 4v9l-4 8-8 9-14 8-5 2h-4v-30l1-14 4-4z" fill="#FEE5E2"/>
<path transform="translate(722,819)" d="m0 0 5 1 3 5 13 53-1 2h-20l-15 1 1-8 11-44z" fill="#FEE5E2"/>
<path transform="translate(510,135)" d="m0 0h9l7 4 4 6-1 10-5 7-4 2h-9l-8-5-3-5v-7l4-8z" fill="#FEE5E2"/>
<path transform="translate(391,92)" d="m0 0h7l8 4 4 6-1 9-3 5-6 5h-10l-6-4-4-6v-7l3-6 5-5z" fill="#FEE5E2"/>
<path transform="translate(451,113)" d="m0 0h7l7 4 4 5v9l-3 6-5 5-7 1-8-3-5-4-1-2v-9l3-6 6-5z" fill="#FEE5E2"/>
</svg>
